<?xml version="1.0" encoding="utf-8"?>
<!-- Generator: Adobe Illustrator 23.0.2, SVG Export Plug-In . SVG Version: 6.00 Build 0)  -->
<svg version="1.1"
	 id="svg2" xmlns:cc="http://creativecommons.org/ns#" xmlns:dc="http://purl.org/dc/elements/1.1/" xmlns:inkscape="http://www.inkscape.org/namespaces/inkscape" xmlns:ns1="http://sozi.baierouge.fr" xmlns:rdf="http://www.w3.org/1999/02/22-rdf-syntax-ns#" xmlns:sodipodi="http://sodipodi.sourceforge.net/DTD/sodipodi-0.dtd" xmlns:svg="http://www.w3.org/2000/svg"
	 xmlns="http://www.w3.org/2000/svg" xmlns:xlink="http://www.w3.org/1999/xlink" x="0px" y="0px" viewBox="0 0 387.7 307.9"
	 style="enable-background:new 0 0 387.7 307.9;" xml:space="preserve">
<style type="text/css">
	.st0{fill-rule:evenodd;clip-rule:evenodd;fill:#F2C802;}
	.st1{fill-rule:evenodd;clip-rule:evenodd;fill:#393228;}
	.st2{fill-rule:evenodd;clip-rule:evenodd;fill:#B94519;}
	.st3{fill:none;stroke:#F2C802;stroke-width:15;stroke-linecap:round;stroke-linejoin:round;}
	.st4{fill-rule:evenodd;clip-rule:evenodd;fill:#FFFFFF;}
	.st5{fill:#FFFFFF;}
	.st6{font-family:'Adventure';}
	.st7{font-size:52.8901px;}
	.st8{fill:none;stroke:#000000;stroke-miterlimit:10;}
</style>
<sodipodi:namedview  bordercolor="#666666" borderopacity="1" gridtolerance="10" guidetolerance="10" id="namedview45" inkscape:current-layer="svg2" inkscape:cx="396.95769" inkscape:cy="-10.934588" inkscape:pageopacity="0" inkscape:pageshadow="2" inkscape:window-height="988" inkscape:window-maximized="1" inkscape:window-width="1680" inkscape:window-x="-8" inkscape:window-y="-8" inkscape:zoom="0.5" objecttolerance="10" pagecolor="#ffffff" showgrid="false">
	</sodipodi:namedview>
<path id="path3061" inkscape:connector-curvature="0" sodipodi:nodetypes="cscscsscscsssscscssssc" class="st0" d="M158.1,25.3
	c22.7,0.5,43.8,12.2,54.4,32.6c13.8,26.6,5,59.3-19.2,78.7c-3.7,3.9-5.2,8.7-3.5,12.6c1.7,4,6.3,6.2,12.1,5.8s24.6-5.4,33.8-6.9
	c9.9-1.6,13.6-3.7,28.3-10.6c11.7-5.5,14.9-18.8,19.5-24c3.3-5,8.4-7.8,13.6-6.8c4.1,0.8,6.6,2.2,8.6,5.7c0,0,11,21.2,12.8,25.3
	s10.7,20.2,12.6,36.2c13.3,115-147,127.1-227.6,109.8c-30.8-6.6-54.6-32.5-54.6-65.1c0-24.4,13.3-45.7,33-57.2
	c6.2-4.2,11.5-9.6,15.7-16.2c2.3-3.6,4.1-7.5,5.5-11.4c-4-4.1-7.4-8.7-10.2-14C77,89.2,91,50.4,124,33.3c10.3-5.3,21.3-7.9,32-8.1
	C156.6,25.2,157.4,25.2,158.1,25.3L158.1,25.3z"/>
<path id="path3945" sodipodi:cx="657.60931" sodipodi:cy="56.887096" sodipodi:rx="19.79899" sodipodi:ry="19.79899" sodipodi:type="arc" class="st1" d="
	M112.7,83.6c0,9,7.3,16.3,16.3,16.3s16.3-7.3,16.3-16.3S138,67.3,129,67.3S112.7,74.6,112.7,83.6z"/>
<path id="path4013" inkscape:connector-curvature="0" sodipodi:nodetypes="ssssccssss" class="st2" d="M104.8,105.3
	c-1.2-3-7.4-7.3-12.7-5.9c-1.3,0.3-4.8-6.3-6-6.1c-3.2,0.4-5.5,3.5-6.9,4.8c-3.9,3.8-18.1,2.2-21.7,3.1c-5.3,7.4,12.3,20.2,21,14.8
	c4.6-1.5,1.7,0.8,0.8,1.8c-5.9,6.2-12,10.2-9.3,12.9c5.4,5.4,21.9,1.2,28.1-5C107.7,115.7,106.2,108.7,104.8,105.3L104.8,105.3z"/>
<path id="path4020" inkscape:connector-curvature="0" sodipodi:nodetypes="cc" class="st3" d="M151.8,32.8
	c-10.2,0-20.5-0.7-28.2-8.5"/>
<path id="path4049" sodipodi:cx="1696.6133" sodipodi:cy="59.030357" sodipodi:rx="2.8689296" sodipodi:ry="2.8689296" sodipodi:type="arc" class="st4" d="
	M138.5,75.6c0,2.5-2,4.5-4.5,4.5s-4.5-2-4.5-4.5l0,0c0-2.5,2-4.5,4.5-4.5S138.5,73.1,138.5,75.6L138.5,75.6z"/>
<text transform="matrix(0.8318 1.029885e-02 -1.238121e-02 0.9999 86.0021 229.3739)" class="st5 st6 st7">AuthIsTick</text>
<rect x="75.5" y="176.4" class="st8" width="230.9" height="61.5"/>
<text transform="matrix(0.8318 1.029885e-02 -1.238121e-02 0.9999 86.0019 229.3739)" class="st8 st6 st7">AuthIsTick</text>
</svg>
